<svg xmlns="http://www.w3.org/2000/svg" width="128" height="128" viewBox="0 0 128 128">
  <defs>
    <linearGradient id="g" x1="0" y1="0" x2="1" y2="1">
      <stop offset="0%" stop-color="#28a89f"/>
      <stop offset="100%" stop-color="#0c7c74"/>
    </linearGradient>
  </defs>
  <rect x="8" y="8" width="112" height="112" rx="24" fill="url(#g)"/>
  <path fill="#ffffff" d="M58 34h12a4 4 0 0 1 4 4v16h16a4 4 0 0 1 4 4v12a4 4 0 0 1-4 4H74v16a4 4 0 0 1-4 4H58a4 4 0 0 1-4-4V74H38a4 4 0 0 1-4-4V58a4 4 0 0 1 4-4h16V38a4 4 0 0 1 4-4z"/>
</svg>

